Coordinates
version=1
nRows=13
nColumns=40
inDegrees=yes

Units are S.I. units (second, meters, Newtons, ...)
Angles are in degrees.

endheader
time	pelvis_tilt	pelvis_list	pelvis_rotation	pelvis_tx	pelvis_ty	pelvis_tz	hip_flexion_r	hip_adduction_r	hip_rotation_r	knee_angle_r	knee_angle_r_beta	ankle_angle_r	subtalar_angle_r	mtp_angle_r	hip_flexion_l	hip_adduction_l	hip_rotation_l	knee_angle_l	knee_angle_l_beta	ankle_angle_l	subtalar_angle_l	mtp_angle_l	lumbar_extension	lumbar_bending	lumbar_rotation	arm_flex_r	arm_add_r	arm_rot_r	elbow_flex_r	pro_sup_r	wrist_flex_r	wrist_dev_r	arm_flex_l	arm_add_l	arm_rot_l	elbow_flex_l	pro_sup_l	wrist_flex_l	wrist_dev_l
     56.68000000	     -3.76119378	     -4.25096987	     -1.84868009	      0.80547313	      0.93290579	      0.39466214	     28.73633808	     -3.95485576	     -7.56569924	     59.14278701	     59.14278701	      5.73518309	    -19.04243753	     12.58996221	     14.66393672	     -4.47735309	     -7.27891044	     21.15794881	     21.15794881	     12.37734528	    -12.95121751	     -1.84062357	    -10.10849519	      4.07844444	      2.10291704	     10.20554506	    -11.49209524	     -0.44339262	     40.09521946	     46.00546430	      0.00000000	      0.00000000	     11.00153107	    -14.10611494	    -12.22687122	     52.17328925	     46.05805755	      0.00000000	      0.00000000
     56.69292857	     -3.87670765	     -4.28950250	     -2.17545743	      0.80509953	      0.93309457	      0.39434518	     29.39134974	     -3.69507718	     -7.58953805	     56.43246999	     56.43246999	      6.04674467	    -18.83973527	     12.08609631	     14.06262740	     -4.49280407	     -7.56829227	     20.75650245	     20.75650245	     12.62815663	    -12.87581070	     -1.94324696	    -10.15233162	      4.25166680	      2.54778024	      8.23637201	    -12.27868990	     -0.53748849	     38.03435602	     46.07389162	      0.00000000	      0.00000000	     11.88235828	    -14.19083048	    -12.43027628	     53.67212637	     46.11236335	      0.00000000	      0.00000000
     56.70585714	     -4.00033411	     -4.26309710	     -2.46923253	      0.80480093	      0.93318509	      0.39396584	     29.73874382	     -3.57592193	     -7.80071198	     53.18194608	     53.18194608	      5.20890631	    -18.64396303	      8.13785685	     13.45815187	     -4.41652914	     -7.82232770	     20.30587349	     20.30587349	     12.72920420	    -12.88313161	     -2.32841157	    -10.13189598	      4.32477768	      2.03715533	      8.09373480	    -12.16046014	     -1.71080166	     32.29893733	     46.35150455	      0.00000000	      0.00000000	     11.52517267	    -14.90784847	    -12.69201366	     56.77257140	     46.23877900	      0.00000000	      0.00000000
     56.71878571	     -4.08766707	     -4.31334796	     -2.76437534	      0.80460071	      0.93333476	      0.39373356	     29.98168554	     -3.22268379	     -7.85341483	     49.87385702	     49.87385702	      5.39394615	    -18.22652218	      7.88992765	     12.82025426	     -4.41997482	     -8.02863703	     19.88310824	     19.88310824	     12.97795832	    -12.87202596	     -2.30604719	    -10.20366241	      4.52449452	      2.46630857	      6.15857442	    -12.91547776	     -1.90760882	     30.54181326	     46.41882774	      0.00000000	      0.00000000	     12.41903654	    -14.93414371	    -13.02359464	     58.15032768	     46.30191743	      0.00000000	      0.00000000
     56.73171429	     -4.18163658	     -4.26500828	     -3.02692956	      0.80456247	      0.93330487	      0.39353935	     29.96463448	     -3.06362498	     -8.12510315	     46.11755160	     46.11755160	      4.27692359	    -17.85887259	      3.65743700	     12.20044281	     -4.31644806	     -8.23958037	     19.46389422	     19.46389422	     13.13540623	    -12.90376066	     -2.48482302	    -10.22352095	      4.55710404	      2.18772943	      5.89983129	    -12.75450251	     -4.81127677	     25.38887095	     46.82430915	      0.00000000	      0.00000000	     12.44830491	    -15.27264707	    -14.13310425	     60.75169277	     46.56129763	      0.00000000	      0.00000000
     56.74464286	     -4.30583675	     -4.30396707	     -3.27354136	      0.80465349	      0.93323365	      0.39353544	     29.96729277	     -2.71644252	     -8.33026450	     42.45560988	     42.45560988	      4.52872700	    -16.89703747	      3.78800602	     11.62614507	     -4.31570089	     -8.42485567	     19.08187511	     19.08187511	     13.40134790	    -12.87466194	     -2.51094268	    -10.15800216	      4.73595209	      2.30961597	      4.09782673	    -13.40244627	     -4.99182805	     24.21719700	     46.87378708	      0.00000000	      0.00000000	     13.11005904	    -15.52130551	    -14.25664552	     61.87618241	     46.60005455	      0.00000000	      0.00000000
     56.75757143	     -4.32842050	     -4.30649014	     -3.49048816	      0.80489454	      0.93321978	      0.39369223	     29.73351568	     -2.42100090	     -8.60732920	     38.66935955	     38.66935955	      4.76998882	    -15.50231323	      3.43857307	     10.93274162	     -4.28713270	     -8.62925456	     18.68361904	     18.68361904	     13.61537001	    -12.71657091	     -2.56488699	    -10.32037170	      4.81743212	      2.74917781	      2.30473412	    -14.00022324	     -5.30229267	     22.70978013	     46.95335829	      0.00000000	      0.00000000	     13.80218238	    -15.59170266	    -14.31564128	     63.65436235	     46.64738149	      0.00000000	      0.00000000
     56.77050000	     -4.44183951	     -4.25971256	     -3.70774199	      0.80529197	      0.93295372	      0.39404767	     29.51797512	     -2.19720514	     -9.04839732	     34.81095443	     34.81095443	      4.82632895	    -13.75673141	      2.54118372	     10.32536807	     -4.22786500	     -8.89662769	     18.27424258	     18.27424258	     13.83410072	    -12.52697648	     -2.68767377	    -10.30585662	      4.79213296	      2.91860249	      0.68422957	    -14.35579849	     -5.90962938	     21.24212970	     47.06689284	      0.00000000	      0.00000000	     14.16809412	    -15.88155172	    -14.36981616	     65.73673423	     46.70528171	      0.00000000	      0.00000000
     56.78342857	     -4.60666219	     -4.27726175	     -3.84285687	      0.80575411	      0.93255266	      0.39455703	     29.25657448	     -1.84479560	     -9.50649467	     30.89280583	     30.89280583	      4.97759428	    -11.97747991	      2.46640488	      9.85118367	     -4.23901785	     -9.00666474	     17.99528269	     17.99528269	     14.06751963	    -12.46385222	     -2.78675173	    -10.16878161	      4.85193418	      2.79553074	     -0.88917029	    -14.78076629	     -6.24542136	     20.41768731	     47.12491317	      0.00000000	      0.00000000	     14.53219191	    -16.23477755	    -14.56064394	     66.90106029	     46.74924990	      0.00000000	      0.00000000
     56.79635714	     -4.72017708	     -4.26866417	     -3.98533603	      0.80642562	      0.93212990	      0.39523121	     28.89684192	     -1.52191849	    -10.03732918	     27.05090877	     27.05090877	      5.09082567	     -9.76086894	      2.41354222	      9.27083072	     -4.23385538	     -9.15806137	     17.65596792	     17.65596792	     14.31425559	    -12.29523315	     -2.91161104	    -10.08416063	      4.90460280	      2.81512037	     -2.55358890	    -15.09613739	     -6.59087071	     19.72707606	     47.17754474	      0.00000000	      0.00000000	     14.93449701	    -16.43711748	    -14.74223664	     68.33790629	     46.79687509	      0.00000000	      0.00000000
     56.80928571	     -4.74494723	     -4.14218796	     -4.09711916	      0.80726078	      0.93161665	      0.39606929	     28.46638491	     -1.40221669	    -10.90024974	     23.47704641	     23.47704641	      5.24255234	     -6.83833076	      1.87319789	      8.56803529	     -4.12000588	     -9.45389341	     17.27308090	     17.27308090	     14.53792215	    -11.90923690	     -3.18325078	    -10.17062433	      4.72201841	      2.90554041	     -4.32059117	    -15.29812565	     -7.44359627	     19.51353564	     47.26355497	      0.00000000	      0.00000000	     15.08149687	    -16.63214066	    -14.94133617	     70.67174268	     46.87270884	      0.00000000	      0.00000000
     56.82221429	     -4.86157051	     -4.08808511	     -4.17522778	      0.80819578	      0.93091160	      0.39714328	     28.12859258	     -1.10927589	    -11.58102114	     20.10597632	     20.10597632	      5.24515110	     -4.32736711	      1.98825662	      7.98920376	     -4.10563137	     -9.67472513	     16.95156552	     16.95156552	     14.74879159	    -11.63486851	     -3.49657378	    -10.09340594	      4.64569423	      2.76447298	     -6.08182190	    -15.45232340	     -8.53230998	     19.75934552	     47.34927523	      0.00000000	      0.00000000	     15.14719994	    -16.89286100	    -15.18131627	     72.45451831	     46.95282578	      0.00000000	      0.00000000
     56.83514286	     -4.99616379	     -4.02212936	     -4.24048018	      0.80915229	      0.93010502	      0.39844582	     27.82407214	     -0.73746769	    -11.87808925	     17.02373149	     17.02373149	      5.16785899	     -2.42809623	      2.62139994	      7.46982826	     -4.08047289	     -9.77046025	     16.70199552	     16.70199552	     15.00823519	    -11.47294131	     -3.67580509	     -9.92151635	      4.53692176	      2.69373365	     -7.57043195	    -15.52456035	     -8.84477175	     19.53731769	     47.37413999	      0.00000000	      0.00000000	     15.50046053	    -17.11230227	    -15.36293029	     73.35420222	     46.99290895	      0.00000000	      0.00000000
